<?xml version="1.0" encoding="UTF-8" standalone="no"?>
<!-- Created with Inkscape (http://www.inkscape.org/) -->

<svg
   width="55.915894mm"
   height="46.565159mm"
   viewBox="0 0 55.915894 46.565159"
   version="1.1"
   id="svg5"
   inkscape:version="1.2.1 (9c6d41e410, 2022-07-14)"
   sodipodi:docname="things.svg"
   xmlns:inkscape="http://www.inkscape.org/namespaces/inkscape"
   xmlns:sodipodi="http://sodipodi.sourceforge.net/DTD/sodipodi-0.dtd"
   xmlns="http://www.w3.org/2000/svg"
   xmlns:svg="http://www.w3.org/2000/svg">
  <sodipodi:namedview
     id="namedview7"
     pagecolor="#505050"
     bordercolor="#eeeeee"
     borderopacity="1"
     inkscape:showpageshadow="0"
     inkscape:pageopacity="0"
     inkscape:pagecheckerboard="0"
     inkscape:deskcolor="#505050"
     inkscape:document-units="mm"
     showgrid="false"
     inkscape:zoom="2.1089995"
     inkscape:cx="407.53921"
     inkscape:cy="261.26132"
     inkscape:window-width="1920"
     inkscape:window-height="1017"
     inkscape:window-x="-8"
     inkscape:window-y="-8"
     inkscape:window-maximized="1"
     inkscape:current-layer="layer1" />
  <defs
     id="defs2" />
  <g
     inkscape:label="Livello 1"
     inkscape:groupmode="layer"
     id="layer1"
     transform="translate(-119.14907,-50.222834)">
    <path
       id="path4373"
       style="fill:#ff0000;fill-opacity:1;stroke:none;stroke-width:0.624316;stroke-linecap:round"
       d="M 130.25019,50.222833 A 11.100921,11.100921 0 0 0 119.14907,61.323335 11.100921,11.100921 0 0 0 130.25019,72.424448 11.100921,11.100921 0 0 0 141.3507,61.323335 11.100921,11.100921 0 0 0 130.25019,50.222833 Z m 20.82251,1.017562 c -1.56282,-0.009 -4.15936,1.388077 -8.50935,4.11719 8.69517,-4.302858 9.62352,-2.250795 10.33657,3.491047 l -2.81368,-0.807831 3.30509,4.087316 2.90757,-4.132433 -2.78319,0.88465 c -0.11551,-5.138888 -0.36873,-7.62802 -2.44301,-7.639939 z m -23.62278,5.574943 a 1.6222374,1.6222374 0 0 1 1.62236,1.622367 1.6222374,1.6222374 0 0 1 -1.62236,1.622366 1.6222374,1.6222374 0 0 1 -1.62176,-1.622366 1.6222374,1.6222374 0 0 1 1.62176,-1.622367 z m 5.59932,0 a 1.6222374,1.6222374 0 0 1 1.62237,1.622367 1.6222374,1.6222374 0 0 1 -1.62237,1.622366 1.6222374,1.6222374 0 0 1 -1.62175,-1.622366 1.6222374,1.6222374 0 0 1 1.62175,-1.622367 z m 25.15919,6.258397 A 16.857305,16.857305 0 0 0 141.3507,79.930257 16.857305,16.857305 0 0 0 158.20843,96.787999 16.857305,16.857305 0 0 0 175.06496,79.930257 16.857305,16.857305 0 0 0 158.20843,63.073735 Z m -31.68706,0.07012 c 2.58746,1.535762 5.05636,1.296926 7.45826,0.04939 -3.35587,3.552441 -4.42094,3.498598 -7.45826,-0.04939 z m 27.43453,9.940885 a 2.463449,2.463449 0 0 1 2.46372,2.46373 2.463449,2.463449 0 0 1 -2.46372,2.46373 2.463449,2.463449 0 0 1 -2.46251,-2.46373 2.463449,2.463449 0 0 1 2.46251,-2.46373 z m 8.50263,0 a 2.463449,2.463449 0 0 1 2.46374,2.46373 2.463449,2.463449 0 0 1 -2.46374,2.46373 2.463449,2.463449 0 0 1 -2.46251,-2.46373 2.463449,2.463449 0 0 1 2.46251,-2.46373 z m -9.91284,9.610437 c 3.92918,2.33213 7.6787,1.969448 11.32609,0.07499 -5.09606,5.394559 -6.71378,5.312793 -11.32609,-0.07499 z"
       inkscape:export-filename="follow.svg"
       inkscape:export-xdpi="96"
       inkscape:export-ydpi="96" />
  </g>
</svg>
