<?xml version="1.0" encoding="UTF-8" standalone="no"?>
<!-- Created with Inkscape (http://www.inkscape.org/) -->

<svg
   width="62.016369mm"
   height="62.01585mm"
   viewBox="0 0 62.016368 62.01585"
   version="1.1"
   id="svg5"
   inkscape:version="1.2.1 (9c6d41e410, 2022-07-14)"
   sodipodi:docname="icon-negative.svg"
   inkscape:export-filename="icon1x.svg"
   inkscape:export-xdpi="97.134796"
   inkscape:export-ydpi="97.134796"
   xml:space="preserve"
   xmlns:inkscape="http://www.inkscape.org/namespaces/inkscape"
   xmlns:sodipodi="http://sodipodi.sourceforge.net/DTD/sodipodi-0.dtd"
   xmlns="http://www.w3.org/2000/svg"
   xmlns:svg="http://www.w3.org/2000/svg"><sodipodi:namedview
     id="namedview7"
     pagecolor="#a1a1a1"
     bordercolor="#eeeeee"
     borderopacity="1"
     inkscape:showpageshadow="false"
     inkscape:pageopacity="0"
     inkscape:pagecheckerboard="false"
     inkscape:deskcolor="#a1a1a1"
     inkscape:document-units="mm"
     showgrid="false"
     inkscape:zoom="0.74564396"
     inkscape:cx="606.858"
     inkscape:cy="1593.2537"
     inkscape:window-width="1920"
     inkscape:window-height="1017"
     inkscape:window-x="-8"
     inkscape:window-y="-8"
     inkscape:window-maximized="1"
     inkscape:current-layer="layer1"
     showguides="true"
     showborder="false"
     borderlayer="true" /><defs
     id="defs2"><linearGradient
       id="linearGradient18362"
       inkscape:swatch="solid"><stop
         style="stop-color:#e10000;stop-opacity:1;"
         offset="0"
         id="stop18360" /></linearGradient><linearGradient
       id="linearGradient16625"
       inkscape:swatch="solid"><stop
         style="stop-color:#ffffff;stop-opacity:1;"
         offset="0"
         id="stop16623" /></linearGradient><linearGradient
       id="linearGradient11190"
       inkscape:swatch="solid"><stop
         style="stop-color:#000000;stop-opacity:1;"
         offset="0"
         id="stop11188" /></linearGradient><linearGradient
       id="linearGradient9222"
       inkscape:swatch="solid"><stop
         style="stop-color:#ffffff;stop-opacity:1;"
         offset="0"
         id="stop9220" /></linearGradient><style
       id="style13047"><![CDATA[
.orange { 
}
.orange { 
  /*fill:url(#linearGradient13473);*/
    fill-opacity:1;
    fill-rule:nonzero;
}
]]></style></defs><g
     inkscape:label="Livello 1"
     inkscape:groupmode="layer"
     id="layer1"
     transform="translate(-332.65882,-403.13726)"><path
       id="rect2302-8-4-8-7"
       style="fill:#000000;fill-opacity:1;stroke-width:1.66633;stroke-linecap:round"
       d="m 332.65882,403.13726 v 15.48949 31.03635 5.2e-4 15.48949 h 15.49001 31.03634 15.49002 v -15.48949 -5.2e-4 -31.03635 -15.48949 h -15.49002 -31.03634 z m 36.41896,7.46466 11.95276,0.62684 6.67091,9.93841 -11.95327,-0.62684 z m 2.61948,5.41311 3.58738,5.34386 6.427,0.33693 -2.11615,3.73104 c -2.38433,3.38377 -11.81798,-1.96008 -10.01438,-5.68079 z m -22.75365,2.53731 h 7.58713 v 21.9599 c 0,2.98151 0.60319,5.07527 1.8092,6.28127 1.206,1.17251 2.99789,1.75855 5.37641,1.75855 2.47899,0 4.27196,-0.65307 5.37745,-1.95957 1.13901,-1.30652 1.70791,-3.34988 1.70791,-6.13038 v -15.6993 c 0.70837,0.59024 1.50225,1.08463 2.26187,1.48105 1.55174,0.80278 3.59965,1.44509 5.32629,0.96118 v 14.56294 c 0,2.479 -0.55329,4.72447 -1.65881,6.73447 -1.07199,1.97651 -2.71272,3.55073 -4.92373,4.72323 -2.21102,1.13899 -4.97549,1.70842 -8.292,1.70842 -4.757,0 -8.37457,-1.20585 -10.8536,-3.61787 -2.47897,-2.44552 -3.71812,-5.66147 -3.71812,-9.64799 z m 34.92397,3.27939 1.11776,0.0858 v 10.11721 h -1.11776 z" /></g></svg>
