<?xml version="1.0" encoding="UTF-8" standalone="no"?>
<!-- Created with Inkscape (http://www.inkscape.org/) -->

<svg
   width="62.016357mm"
   height="62.015839mm"
   viewBox="0 0 62.016357 62.015839"
   version="1.1"
   id="svg5"
   inkscape:version="1.2.1 (9c6d41e410, 2022-07-14)"
   sodipodi:docname="things.svg"
   inkscape:export-filename="icon1x.svg"
   inkscape:export-xdpi="97.134796"
   inkscape:export-ydpi="97.134796"
   xml:space="preserve"
   xmlns:inkscape="http://www.inkscape.org/namespaces/inkscape"
   xmlns:sodipodi="http://sodipodi.sourceforge.net/DTD/sodipodi-0.dtd"
   xmlns="http://www.w3.org/2000/svg"
   xmlns:svg="http://www.w3.org/2000/svg"><sodipodi:namedview
     id="namedview7"
     pagecolor="#a1a1a1"
     bordercolor="#eeeeee"
     borderopacity="1"
     inkscape:showpageshadow="false"
     inkscape:pageopacity="0"
     inkscape:pagecheckerboard="false"
     inkscape:deskcolor="#a1a1a1"
     inkscape:document-units="mm"
     showgrid="false"
     inkscape:zoom="0.74564396"
     inkscape:cx="606.858"
     inkscape:cy="1593.2537"
     inkscape:window-width="1920"
     inkscape:window-height="1017"
     inkscape:window-x="-8"
     inkscape:window-y="-8"
     inkscape:window-maximized="1"
     inkscape:current-layer="layer1"
     showguides="true"
     showborder="false"
     borderlayer="true" /><defs
     id="defs2"><linearGradient
       id="linearGradient18362"
       inkscape:swatch="solid"><stop
         style="stop-color:#e10000;stop-opacity:1;"
         offset="0"
         id="stop18360" /></linearGradient><linearGradient
       id="linearGradient16625"
       inkscape:swatch="solid"><stop
         style="stop-color:#ffffff;stop-opacity:1;"
         offset="0"
         id="stop16623" /></linearGradient><linearGradient
       id="linearGradient11190"
       inkscape:swatch="solid"><stop
         style="stop-color:#000000;stop-opacity:1;"
         offset="0"
         id="stop11188" /></linearGradient><linearGradient
       id="linearGradient9222"
       inkscape:swatch="solid"><stop
         style="stop-color:#ffffff;stop-opacity:1;"
         offset="0"
         id="stop9220" /></linearGradient><style
       id="style13047"><![CDATA[
.orange { 
}
.orange { 
  /*fill:url(#linearGradient13473);*/
    fill-opacity:1;
    fill-rule:nonzero;
}
]]></style></defs><g
     inkscape:label="Livello 1"
     inkscape:groupmode="layer"
     id="layer1"
     transform="translate(-286.92725,-390.54049)"><path
       id="rect2302-8-4-8-7"
       style="fill:#000000;fill-opacity:1;stroke-width:1.66633;stroke-linecap:round"
       d="m 302.41727,390.54049 c -8.58145,0 -15.49001,6.90804 -15.49001,15.48949 v 31.03635 c 0,8.58145 6.90856,15.49001 15.49001,15.49001 h 31.03635 c 8.58144,0 15.49001,-6.90856 15.49001,-15.49001 v -31.03635 c 0,-8.58145 -6.90857,-15.48949 -15.49001,-15.48949 z m 20.92895,7.46466 11.95276,0.62683 6.67091,9.93841 -11.95327,-0.62683 z m 2.61948,5.4131 3.58738,5.34386 6.427,0.33693 -2.11615,3.73104 c -2.38433,3.38378 -11.81798,-1.96007 -10.01438,-5.68079 z m -22.75365,2.53732 h 7.58714 v 21.9599 c 0,2.98151 0.60318,5.07527 1.80919,6.28127 1.20601,1.17251 2.99789,1.75855 5.37641,1.75855 2.47899,0 4.27196,-0.65307 5.37745,-1.95957 1.13901,-1.30652 1.70791,-3.34988 1.70791,-6.13038 v -15.6993 c 0.70837,0.59024 1.50225,1.08463 2.26188,1.48105 1.55174,0.80278 3.59964,1.44509 5.32629,0.96118 v 14.56293 c 0,2.47901 -0.5533,4.72448 -1.65882,6.73448 -1.07199,1.97651 -2.71272,3.55072 -4.92373,4.72322 -2.21102,1.139 -4.97549,1.70842 -8.292,1.70842 -4.75701,0 -8.37457,-1.20584 -10.8536,-3.61786 -2.47897,-2.44552 -3.71812,-5.66147 -3.71812,-9.64799 z m 34.92397,3.27938 1.11776,0.0858 v 10.11721 h -1.11776 z" /></g></svg>
